<svg width="37" height="36" viewBox="0 0 37 36" fill="none" xmlns="http://www.w3.org/2000/svg">
<path d="M18.1166 34.7585H2.4327C2.24388 34.761 2.05647 34.7261 1.88153 34.656C1.70659 34.5859 1.54767 34.4819 1.41414 34.3502C1.28061 34.2185 1.17519 34.0618 1.10408 33.8893C1.03297 33.7168 0.997623 33.532 1.00012 33.3458V17.8793C1.00012 13.4026 2.80346 9.10929 6.01343 5.94382C9.2234 2.77834 13.577 1 18.1166 1C20.3644 1 22.5902 1.43659 24.6668 2.28486C26.7435 3.13312 28.6304 4.37643 30.2198 5.94382C31.8092 7.5112 33.07 9.37196 33.9302 11.4198C34.7904 13.4677 35.2331 15.6626 35.2331 17.8793C35.2331 20.0959 34.7904 22.2908 33.9302 24.3387C33.07 26.3865 31.8092 28.2473 30.2198 29.8147C28.6304 31.3821 26.7435 32.6254 24.6668 33.4736C22.5902 34.3219 20.3644 34.7585 18.1166 34.7585Z" stroke="#7C7C8A" stroke-width="2" stroke-linecap="round" stroke-linejoin="round"/>
<path fill-rule="evenodd" clip-rule="evenodd" d="M18.546 21.3851C18.546 21.1089 18.7699 20.8851 19.046 20.8851C19.3222 20.8851 19.546 21.1089 19.546 21.3851C19.546 21.6612 19.3222 21.8851 19.046 21.8851C18.7699 21.8851 18.546 21.6612 18.546 21.3851Z" fill="#7C7C8A"/>
<path fill-rule="evenodd" clip-rule="evenodd" d="M15.5649 16.8908C15.2322 16.8908 14.9626 17.1841 14.9626 17.5458C14.9602 20.4054 14.9578 23.2649 14.9554 26.1244C14.9554 26.4862 15.2258 26.7795 15.5594 26.7795H19.5326C19.8662 26.7795 20.1366 26.4862 20.1366 26.1244C20.1436 24.5854 20.1385 19.1099 20.1294 17.5458C20.1294 17.1841 19.8598 16.8908 19.5271 16.8908H15.5649ZM18.0975 11.136C20.5213 13.7496 23.9926 14.2411 24.0337 14.2411L24.424 14.2858L23.9105 20.6747C24.0748 20.6747 24.2186 20.697 24.3419 20.697L24.9581 13.705C23.7873 13.6603 20.7883 13.3699 18.0975 11.136ZM17.0293 11.0913C14.3385 13.3475 11.3396 13.6603 10.1688 13.705L10.785 20.697C10.9082 20.697 11.052 20.697 11.2163 20.6747L10.7028 14.2858L11.0931 14.2411C11.1136 14.2411 14.5645 13.7273 17.0293 11.0913ZM17.0293 9.88506H18.0564C18.2207 9.88506 18.3645 9.95208 18.5083 10.0414C21.3635 12.0742 24.8759 12.1636 26.1289 12.1189H26.1905C26.4164 12.1412 26.5808 12.3647 26.5397 12.6104L25.9235 19.8481C25.9029 20.0715 25.718 20.2502 25.5127 20.2502H25.2046L25.1018 21.5458L24.7526 21.5682C24.4445 21.5905 24.157 21.5682 23.8489 21.5458C23.8332 23.0877 23.8305 25.198 23.8263 26.8957C23.8263 27.3059 23.5963 27.6579 23.2685 27.8082L22.9177 27.8851L17.2891 27.8788H12.1457L11.8235 27.8082C11.4957 27.6579 11.2658 27.3059 11.2658 26.8957L11.278 21.5458C10.9904 21.5682 10.6822 21.5905 10.3741 21.5682L10.0044 21.5458L9.90173 20.2502H9.59359C9.3882 20.2502 9.20334 20.0715 9.18278 19.8481L8.56658 12.6104C8.56658 12.588 8.56658 12.588 8.54602 12.521C8.56658 12.2753 8.75144 12.0966 8.97739 12.0966C10.1893 12.1412 13.599 12.0519 16.598 10.0191C16.7212 9.92971 16.865 9.88506 17.0293 9.88506Z" fill="#7C7C8A"/>
</svg>
