<svg width="137" height="26" viewBox="0 0 137 26" fill="none" xmlns="http://www.w3.org/2000/svg">
<path d="M9.37911 20.8633C8.82441 21.2539 8.11341 21.5625 7.24621 21.7891C6.37911 22.0078 5.31661 22.1172 4.05871 22.1172C2.80871 22.1172 1.54701 22.043 0.273607 21.8945V19.6211C1.41421 19.8789 2.56271 20.0078 3.71891 20.0078C4.87521 20.0078 5.74231 19.9453 6.32051 19.8203C6.89861 19.6875 7.36341 19.5156 7.71501 19.3047C8.36341 18.9141 8.68771 18.4062 8.68771 17.7812C8.68771 17.2969 8.56271 16.9219 8.31271 16.6562C7.91421 16.2422 7.34001 15.8633 6.59001 15.5195L3.59001 14.1484C2.55871 13.6641 1.82831 13.2148 1.39861 12.8008C0.476707 11.9102 0.0158081 10.8789 0.0158081 9.70703C0.0158081 8.50391 0.539207 7.53125 1.58611 6.78906C2.73451 5.97656 4.36731 5.57031 6.48451 5.57031C7.85171 5.57031 9.10171 5.625 10.2345 5.73438V7.97266C9.27361 7.75391 8.19941 7.64453 7.01191 7.64453C5.83221 7.64453 4.97281 7.70703 4.43371 7.83203C3.90251 7.94922 3.48451 8.10156 3.17981 8.28906C2.62521 8.63281 2.34781 9.08594 2.34781 9.64844C2.34781 10.1953 2.52361 10.6484 2.87521 11.0078C3.18771 11.3125 3.75801 11.6641 4.58611 12.0625L7.66811 13.5273C8.69161 14.0117 9.40641 14.4688 9.81271 14.8984C10.2267 15.3281 10.5314 15.7617 10.7267 16.1992C10.922 16.6289 11.0197 17.1484 11.0197 17.7578C11.0197 18.3594 10.8869 18.9297 10.6212 19.4688C10.3556 20 9.94161 20.4648 9.37911 20.8633ZM16.7811 20.1484C17.0389 20.2422 17.4295 20.2891 17.953 20.2891C18.4764 20.2891 18.9139 20.2266 19.2655 20.1016V21.9766C19.1014 22.0156 18.8631 22.0391 18.5506 22.0469L17.8123 22.0703C17.6483 22.0703 17.5233 22.0703 17.4373 22.0703C15.9295 22.0703 14.8162 21.5781 14.0975 20.5938C13.5194 19.7969 13.2303 18.7422 13.2303 17.4297V11.6992H11.4959V10.5977L13.2303 9.90625L13.7928 6.90625H15.5741V9.90625H19.3241V11.6992H15.5741V17.418C15.5741 18.9492 15.9764 19.8594 16.7811 20.1484ZM28.648 19.0352V9.90625H30.9917V22H28.8823L28.6714 20.7227C27.5152 21.6992 26.2378 22.1875 24.8394 22.1875C23.355 22.1875 22.3042 21.7773 21.687 20.957C21.0464 20.1211 20.7261 18.6797 20.7261 16.6328V9.90625H23.0698V16.5156C23.0698 17.9609 23.2769 18.9453 23.6909 19.4688C24.0581 19.9375 24.7573 20.1719 25.7886 20.1719C26.8277 20.1719 27.7808 19.793 28.648 19.0352ZM34.925 11.2305C35.6047 10.707 36.3664 10.3242 37.2102 10.082C38.0617 9.83984 38.8039 9.71875 39.4367 9.71875C40.0695 9.71875 40.5578 9.73438 40.9016 9.76562V4.5625H43.2336V22H41.1359L41.0422 20.6055C40.5656 21.2383 39.843 21.707 38.8742 22.0117C38.4992 22.1289 38.1164 22.1875 37.7258 22.1875C37.343 22.1875 36.9641 22.1484 36.5891 22.0703C36.2141 21.9922 35.8391 21.8633 35.4641 21.6836C35.0969 21.4961 34.7453 21.2539 34.4094 20.957C34.0734 20.6523 33.7727 20.2812 33.507 19.8438C32.9445 18.8828 32.6633 17.7461 32.6633 16.4336C32.6633 15.1211 32.8703 14.0586 33.2844 13.2461C33.7062 12.4258 34.2531 11.7539 34.925 11.2305ZM36.343 12.625C35.9445 13 35.6359 13.4844 35.4172 14.0781C35.2062 14.6641 35.1008 15.3789 35.1008 16.2227C35.1008 17.0586 35.2023 17.75 35.4055 18.2969C35.6086 18.8359 35.8625 19.2578 36.1672 19.5625C36.7062 20.1094 37.3547 20.3828 38.1125 20.3828C39.0891 20.3828 39.8977 20.0234 40.5383 19.3047C40.7023 19.125 40.8195 18.9648 40.8898 18.8242V11.6172L40.6555 11.5938C40.2961 11.5469 39.8664 11.5234 39.3664 11.5234C38.8742 11.5234 38.3469 11.6133 37.7844 11.793C37.2219 11.9648 36.7414 12.2422 36.343 12.625ZM51.0575 22.1875C46.6356 22.1875 44.4247 20.0273 44.4247 15.707C44.4247 13.8477 45.038 12.3594 46.2645 11.2422C47.3661 10.2266 48.6239 9.71875 50.038 9.71875C51.577 9.71875 52.7802 10.2344 53.6473 11.2656C54.452 12.2266 54.8544 13.5117 54.8544 15.1211V16.0352H46.8622C46.8622 18.2461 47.7645 19.5977 49.5692 20.0898C49.9989 20.207 50.6591 20.2656 51.5497 20.2656C52.4481 20.2656 53.327 20.1445 54.1864 19.9023V21.8828C53.327 22.0859 52.2841 22.1875 51.0575 22.1875ZM52.5106 14.3125C52.5106 13.5625 52.3036 12.9297 51.8895 12.4141C51.4052 11.8203 50.7372 11.5234 49.8856 11.5234C48.9872 11.5234 48.2567 11.8086 47.6942 12.3789C47.1786 12.9102 46.9208 13.5547 46.9208 14.3125H52.5106ZM61.2017 11.7344C60.0377 11.7344 59.0025 12.1289 58.0962 12.918V22H55.7525V9.90625H57.9205L58.0845 11.2188C59.358 10.2188 60.6744 9.71875 62.0337 9.71875C63.4712 9.71875 64.5259 10.1484 65.1978 11.0078C65.9009 11.9141 66.2525 13.375 66.2525 15.3906V22H63.9087V15.3906C63.9087 13.4531 63.3853 12.2969 62.3384 11.9219C62.0025 11.7969 61.6236 11.7344 61.2017 11.7344ZM72.436 20.1484C72.694 20.2422 73.084 20.2891 73.608 20.2891C74.131 20.2891 74.569 20.2266 74.92 20.1016V21.9766C74.756 22.0156 74.518 22.0391 74.205 22.0469L73.467 22.0703C73.303 22.0703 73.178 22.0703 73.092 22.0703C71.584 22.0703 70.471 21.5781 69.7522 20.5938C69.1741 19.7969 68.885 18.7422 68.885 17.4297V11.6992H67.1506V10.5977L68.885 9.90625L69.4475 6.90625H71.229V9.90625H74.979V11.6992H71.229V17.418C71.229 18.9492 71.631 19.8594 72.436 20.1484Z" fill="#94B447"/>
<path d="M78.204 5.6875H80.548V12.1328H88.259V5.6875H90.603V22H88.259V14.1953H80.548V22H78.204V5.6875ZM91.759 15.9297C91.759 14.0312 92.364 12.4922 93.575 11.3125C94.708 10.2109 96.11 9.66016 97.782 9.66016C99.423 9.66016 100.794 10.2109 101.895 11.3125C103.067 12.4844 103.653 14.0234 103.653 15.9297C103.653 17.8281 103.063 19.3594 101.884 20.5234C100.766 21.6328 99.395 22.1875 97.77 22.1875C96.122 22.1875 94.723 21.6328 93.575 20.5234C92.364 19.3594 91.759 17.8281 91.759 15.9297ZM94.196 15.9297C94.196 17.9297 94.837 19.2891 96.118 20.0078C96.571 20.2578 97.114 20.3828 97.747 20.3828C98.38 20.3828 98.915 20.2578 99.352 20.0078C99.79 19.75 100.149 19.4141 100.43 19C100.954 18.2031 101.216 17.1797 101.216 15.9297C101.216 13.9453 100.587 12.5859 99.329 11.8516C98.891 11.5938 98.368 11.4648 97.759 11.4648C97.149 11.4648 96.618 11.5938 96.165 11.8516C95.72 12.1016 95.352 12.4336 95.063 12.8477C94.485 13.6602 94.196 14.6875 94.196 15.9297ZM112.743 19.0352V9.90625H115.086V22H112.977L112.766 20.7227C111.61 21.6992 110.332 22.1875 108.934 22.1875C107.45 22.1875 106.399 21.7773 105.782 20.957C105.141 20.1211 104.821 18.6797 104.821 16.6328V9.90625H107.165V16.5156C107.165 17.9609 107.372 18.9453 107.786 19.4688C108.153 19.9375 108.852 20.1719 109.883 20.1719C110.922 20.1719 111.875 19.793 112.743 19.0352ZM120.156 22.1875C119.18 22.1875 118.192 22.1172 117.192 21.9766V19.9023C118.207 20.1445 119.238 20.2656 120.285 20.2656C122.379 20.2656 123.426 19.8242 123.426 18.9414C123.426 18.6055 123.344 18.3555 123.18 18.1914C122.938 17.9336 122.555 17.6758 122.031 17.418L120.32 16.6328C119.211 16.0781 118.492 15.6328 118.164 15.2969C117.547 14.6719 117.238 13.9297 117.238 13.0703C117.238 12.1016 117.688 11.3125 118.586 10.7031C119.555 10.0469 120.914 9.71875 122.664 9.71875C123.547 9.71875 124.438 9.78125 125.336 9.90625V11.9102C124.352 11.7305 123.492 11.6406 122.758 11.6406C122.031 11.6406 121.465 11.6875 121.059 11.7812C120.66 11.875 120.36 11.9922 120.156 12.1328C119.836 12.3516 119.676 12.6367 119.676 12.9883C119.676 13.332 119.785 13.6133 120.004 13.832C120.231 14.043 120.582 14.2734 121.059 14.5234L122.781 15.3555C123.906 15.9414 124.629 16.3906 124.949 16.7031C125.559 17.2969 125.863 18.043 125.863 18.9414C125.863 19.9023 125.379 20.6758 124.41 21.2617C123.395 21.8789 121.977 22.1875 120.156 22.1875ZM133.16 22.1875C128.738 22.1875 126.527 20.0273 126.527 15.707C126.527 13.8477 127.14 12.3594 128.367 11.2422C129.469 10.2266 130.726 9.71875 132.14 9.71875C133.68 9.71875 134.883 10.2344 135.75 11.2656C136.555 12.2266 136.957 13.5117 136.957 15.1211V16.0352H128.965C128.965 18.2461 129.867 19.5977 131.672 20.0898C132.101 20.207 132.762 20.2656 133.652 20.2656C134.551 20.2656 135.43 20.1445 136.289 19.9023V21.8828C135.43 22.0859 134.387 22.1875 133.16 22.1875ZM134.613 14.3125C134.613 13.5625 134.406 12.9297 133.992 12.4141C133.508 11.8203 132.84 11.5234 131.988 11.5234C131.09 11.5234 130.359 11.8086 129.797 12.3789C129.281 12.9102 129.023 13.5547 129.023 14.3125H134.613Z" fill="#3B5284"/>
</svg>
