<svg width="167" height="26" viewBox="0 0 167 26" fill="none" xmlns="http://www.w3.org/2000/svg">
<path d="M39.3791 20.8633C38.8244 21.2539 38.1134 21.5625 37.2462 21.7891C36.3791 22.0078 35.3166 22.1172 34.0587 22.1172C32.8087 22.1172 31.547 22.043 30.2736 21.8945V19.6211C31.4142 19.8789 32.5627 20.0078 33.7189 20.0078C34.8752 20.0078 35.7423 19.9453 36.3205 19.8203C36.8986 19.6875 37.3634 19.5156 37.715 19.3047C38.3634 18.9141 38.6877 18.4062 38.6877 17.7812C38.6877 17.2969 38.5627 16.9219 38.3127 16.6562C37.9142 16.2422 37.34 15.8633 36.59 15.5195L33.59 14.1484C32.5587 13.6641 31.8283 13.2148 31.3986 12.8008C30.4767 11.9102 30.0158 10.8789 30.0158 9.70703C30.0158 8.50391 30.5392 7.53125 31.5861 6.78906C32.7345 5.97656 34.3673 5.57031 36.4845 5.57031C37.8517 5.57031 39.1017 5.625 40.2345 5.73438V7.97266C39.2736 7.75391 38.1994 7.64453 37.0119 7.64453C35.8322 7.64453 34.9728 7.70703 34.4337 7.83203C33.9025 7.94922 33.4845 8.10156 33.1798 8.28906C32.6252 8.63281 32.3478 9.08594 32.3478 9.64844C32.3478 10.1953 32.5236 10.6484 32.8752 11.0078C33.1877 11.3125 33.758 11.6641 34.5861 12.0625L37.6681 13.5273C38.6916 14.0117 39.4064 14.4688 39.8127 14.8984C40.2267 15.3281 40.5314 15.7617 40.7267 16.1992C40.922 16.6289 41.0197 17.1484 41.0197 17.7578C41.0197 18.3594 40.8869 18.9297 40.6212 19.4688C40.3556 20 39.9416 20.4648 39.3791 20.8633ZM46.7811 20.1484C47.0389 20.2422 47.4295 20.2891 47.953 20.2891C48.4764 20.2891 48.9139 20.2266 49.2655 20.1016V21.9766C49.1014 22.0156 48.8631 22.0391 48.5506 22.0469L47.8123 22.0703C47.6483 22.0703 47.5233 22.0703 47.4373 22.0703C45.9295 22.0703 44.8162 21.5781 44.0975 20.5938C43.5194 19.7969 43.2303 18.7422 43.2303 17.4297V11.6992H41.4959V10.5977L43.2303 9.90625L43.7928 6.90625H45.5741V9.90625H49.3241V11.6992H45.5741V17.418C45.5741 18.9492 45.9764 19.8594 46.7811 20.1484ZM58.648 19.0352V9.90625H60.9917V22H58.8823L58.6714 20.7227C57.5152 21.6992 56.2378 22.1875 54.8394 22.1875C53.355 22.1875 52.3042 21.7773 51.687 20.957C51.0464 20.1211 50.7261 18.6797 50.7261 16.6328V9.90625H53.0698V16.5156C53.0698 17.9609 53.2769 18.9453 53.6909 19.4688C54.0581 19.9375 54.7573 20.1719 55.7886 20.1719C56.8277 20.1719 57.7808 19.793 58.648 19.0352ZM64.925 11.2305C65.6047 10.707 66.3664 10.3242 67.2102 10.082C68.0617 9.83984 68.8039 9.71875 69.4367 9.71875C70.0695 9.71875 70.5578 9.73438 70.9016 9.76562V4.5625H73.2336V22H71.1359L71.0422 20.6055C70.5656 21.2383 69.843 21.707 68.8742 22.0117C68.4992 22.1289 68.1164 22.1875 67.7258 22.1875C67.343 22.1875 66.9641 22.1484 66.5891 22.0703C66.2141 21.9922 65.8391 21.8633 65.4641 21.6836C65.0969 21.4961 64.7453 21.2539 64.4094 20.957C64.0734 20.6523 63.7727 20.2812 63.507 19.8438C62.9445 18.8828 62.6633 17.7461 62.6633 16.4336C62.6633 15.1211 62.8703 14.0586 63.2844 13.2461C63.7062 12.4258 64.2531 11.7539 64.925 11.2305ZM66.343 12.625C65.9445 13 65.6359 13.4844 65.4172 14.0781C65.2062 14.6641 65.1008 15.3789 65.1008 16.2227C65.1008 17.0586 65.2023 17.75 65.4055 18.2969C65.6086 18.8359 65.8625 19.2578 66.1672 19.5625C66.7062 20.1094 67.3547 20.3828 68.1125 20.3828C69.0891 20.3828 69.8977 20.0234 70.5383 19.3047C70.7023 19.125 70.8195 18.9648 70.8898 18.8242V11.6172L70.6555 11.5938C70.2961 11.5469 69.8664 11.5234 69.3664 11.5234C68.8742 11.5234 68.3469 11.6133 67.7844 11.793C67.2219 11.9648 66.7414 12.2422 66.343 12.625ZM81.0575 22.1875C76.6356 22.1875 74.4247 20.0273 74.4247 15.707C74.4247 13.8477 75.038 12.3594 76.2645 11.2422C77.3661 10.2266 78.6239 9.71875 80.038 9.71875C81.577 9.71875 82.7802 10.2344 83.6473 11.2656C84.452 12.2266 84.8544 13.5117 84.8544 15.1211V16.0352H76.8622C76.8622 18.2461 77.7645 19.5977 79.5692 20.0898C79.9989 20.207 80.6591 20.2656 81.5497 20.2656C82.4481 20.2656 83.327 20.1445 84.1864 19.9023V21.8828C83.327 22.0859 82.2841 22.1875 81.0575 22.1875ZM82.5106 14.3125C82.5106 13.5625 82.3036 12.9297 81.8895 12.4141C81.4052 11.8203 80.7372 11.5234 79.8856 11.5234C78.9872 11.5234 78.2567 11.8086 77.6942 12.3789C77.1786 12.9102 76.9208 13.5547 76.9208 14.3125H82.5106ZM91.2017 11.7344C90.0377 11.7344 89.0025 12.1289 88.0962 12.918V22H85.7525V9.90625H87.9205L88.0845 11.2188C89.358 10.2188 90.6744 9.71875 92.0337 9.71875C93.4712 9.71875 94.5259 10.1484 95.1978 11.0078C95.9009 11.9141 96.2525 13.375 96.2525 15.3906V22H93.9087V15.3906C93.9087 13.4531 93.3853 12.2969 92.3384 11.9219C92.0025 11.7969 91.6236 11.7344 91.2017 11.7344ZM102.436 20.1484C102.694 20.2422 103.084 20.2891 103.608 20.2891C104.131 20.2891 104.569 20.2266 104.92 20.1016V21.9766C104.756 22.0156 104.518 22.0391 104.205 22.0469L103.467 22.0703C103.303 22.0703 103.178 22.0703 103.092 22.0703C101.584 22.0703 100.471 21.5781 99.7522 20.5938C99.1741 19.7969 98.885 18.7422 98.885 17.4297V11.6992H97.1506V10.5977L98.885 9.90625L99.4475 6.90625H101.229V9.90625H104.979V11.6992H101.229V17.418C101.229 18.9492 101.631 19.8594 102.436 20.1484Z" fill="#94B447"/>
<path d="M108.204 5.6875H110.548V12.1328H118.259V5.6875H120.603V22H118.259V14.1953H110.548V22H108.204V5.6875ZM121.759 15.9297C121.759 14.0312 122.364 12.4922 123.575 11.3125C124.708 10.2109 126.11 9.66016 127.782 9.66016C129.423 9.66016 130.794 10.2109 131.895 11.3125C133.067 12.4844 133.653 14.0234 133.653 15.9297C133.653 17.8281 133.063 19.3594 131.884 20.5234C130.766 21.6328 129.395 22.1875 127.77 22.1875C126.122 22.1875 124.723 21.6328 123.575 20.5234C122.364 19.3594 121.759 17.8281 121.759 15.9297ZM124.196 15.9297C124.196 17.9297 124.837 19.2891 126.118 20.0078C126.571 20.2578 127.114 20.3828 127.747 20.3828C128.38 20.3828 128.915 20.2578 129.352 20.0078C129.79 19.75 130.149 19.4141 130.43 19C130.954 18.2031 131.216 17.1797 131.216 15.9297C131.216 13.9453 130.587 12.5859 129.329 11.8516C128.891 11.5938 128.368 11.4648 127.759 11.4648C127.149 11.4648 126.618 11.5938 126.165 11.8516C125.72 12.1016 125.352 12.4336 125.063 12.8477C124.485 13.6602 124.196 14.6875 124.196 15.9297ZM142.743 19.0352V9.90625H145.086V22H142.977L142.766 20.7227C141.61 21.6992 140.332 22.1875 138.934 22.1875C137.45 22.1875 136.399 21.7773 135.782 20.957C135.141 20.1211 134.821 18.6797 134.821 16.6328V9.90625H137.165V16.5156C137.165 17.9609 137.372 18.9453 137.786 19.4688C138.153 19.9375 138.852 20.1719 139.883 20.1719C140.922 20.1719 141.875 19.793 142.743 19.0352ZM150.156 22.1875C149.18 22.1875 148.192 22.1172 147.192 21.9766V19.9023C148.207 20.1445 149.238 20.2656 150.285 20.2656C152.379 20.2656 153.426 19.8242 153.426 18.9414C153.426 18.6055 153.344 18.3555 153.18 18.1914C152.938 17.9336 152.555 17.6758 152.031 17.418L150.32 16.6328C149.211 16.0781 148.492 15.6328 148.164 15.2969C147.547 14.6719 147.238 13.9297 147.238 13.0703C147.238 12.1016 147.688 11.3125 148.586 10.7031C149.555 10.0469 150.914 9.71875 152.664 9.71875C153.547 9.71875 154.438 9.78125 155.336 9.90625V11.9102C154.352 11.7305 153.492 11.6406 152.758 11.6406C152.031 11.6406 151.465 11.6875 151.059 11.7812C150.66 11.875 150.36 11.9922 150.156 12.1328C149.836 12.3516 149.676 12.6367 149.676 12.9883C149.676 13.332 149.785 13.6133 150.004 13.832C150.231 14.043 150.582 14.2734 151.059 14.5234L152.781 15.3555C153.906 15.9414 154.629 16.3906 154.949 16.7031C155.559 17.2969 155.863 18.043 155.863 18.9414C155.863 19.9023 155.379 20.6758 154.41 21.2617C153.395 21.8789 151.977 22.1875 150.156 22.1875ZM163.16 22.1875C158.738 22.1875 156.527 20.0273 156.527 15.707C156.527 13.8477 157.14 12.3594 158.367 11.2422C159.469 10.2266 160.726 9.71875 162.14 9.71875C163.68 9.71875 164.883 10.2344 165.75 11.2656C166.555 12.2266 166.957 13.5117 166.957 15.1211V16.0352H158.965C158.965 18.2461 159.867 19.5977 161.672 20.0898C162.101 20.207 162.762 20.2656 163.652 20.2656C164.551 20.2656 165.43 20.1445 166.289 19.9023V21.8828C165.43 22.0859 164.387 22.1875 163.16 22.1875ZM164.613 14.3125C164.613 13.5625 164.406 12.9297 163.992 12.4141C163.508 11.8203 162.84 11.5234 161.988 11.5234C161.09 11.5234 160.359 11.8086 159.797 12.3789C159.281 12.9102 159.023 13.5547 159.023 14.3125H164.613Z" fill="#3B5284"/>
<path fill-rule="evenodd" clip-rule="evenodd" d="M14.8994 4.20292C12.6003 4.20292 10.395 5.09974 8.76877 6.69663C7.14246 8.29358 6.22851 10.4599 6.22851 12.719V21.0814C6.22823 21.1019 6.23209 21.1222 6.23991 21.1411C6.24774 21.16 6.25929 21.1771 6.2738 21.1913C6.28831 21.2056 6.30549 21.2167 6.32427 21.2242C6.34304 21.2317 6.36309 21.2354 6.38326 21.2352L6.39141 21.2351L14.8994 21.2351C16.0379 21.2351 17.1652 21.0149 18.2171 20.5871C19.269 20.1593 20.2248 19.5321 21.0301 18.7414C21.8353 17.9507 22.4742 17.0119 22.9101 15.9785C23.346 14.9452 23.5703 13.8376 23.5703 12.719C23.5703 11.6004 23.346 10.4928 22.9101 9.4595C22.4742 8.42616 21.8353 7.48735 21.0301 6.69663C20.2248 5.90592 19.269 5.27878 18.2171 4.85094C17.1652 4.4231 16.0379 4.20292 14.8994 4.20292ZM14.8994 22.438H6.39481C6.21173 22.4398 6.03013 22.4058 5.86058 22.3382C5.68956 22.2699 5.53432 22.1687 5.40396 22.0407C5.2736 21.9127 5.17077 21.7605 5.10144 21.593C5.0327 21.427 4.99826 21.2492 5.00007 21.0701V12.719C5.00007 10.1419 6.04262 7.67002 7.89892 5.84723C9.75528 4.02437 12.2734 3 14.8994 3C16.1997 3 17.4871 3.25148 18.6883 3.74004C19.8895 4.2286 20.9808 4.94465 21.8999 5.84723C22.8191 6.7498 23.5481 7.82121 24.0455 9.00026C24.5428 10.1793 24.7988 11.4429 24.7988 12.719C24.7988 13.9951 24.5428 15.2587 24.0455 16.4378C23.5481 17.6168 22.8191 18.6882 21.8999 19.5908C20.9808 20.4934 19.8895 21.2094 18.6883 21.698C17.4871 22.1866 16.1997 22.438 14.8994 22.438Z" fill="#3B5284"/>
<path fill-rule="evenodd" clip-rule="evenodd" d="M14.1195 12.1137C13.9717 12.1137 13.8518 12.244 13.8518 12.4048C13.8507 13.6757 13.8497 14.9466 13.8486 16.2175C13.8486 16.3783 13.9688 16.5086 14.1171 16.5086H15.8829C16.0312 16.5086 16.1514 16.3783 16.1514 16.2175C16.1545 15.5335 16.1522 13.0999 16.1482 12.4048C16.1482 12.244 16.0283 12.1137 15.8805 12.1137H14.1195ZM15.2451 9.55598C16.3223 10.7176 17.8652 10.936 17.8834 10.936L18.0569 10.9559L17.8287 13.7954C17.9017 13.7954 17.9656 13.8053 18.0204 13.8053L18.2942 10.6977C17.7739 10.6779 16.441 10.5488 15.2451 9.55598ZM14.7704 9.53612C13.5744 10.5389 12.2416 10.6779 11.7212 10.6977L11.9951 13.8053C12.0499 13.8053 12.1138 13.8053 12.1868 13.7954L11.9586 10.9559L12.132 10.936C12.1412 10.936 13.6749 10.7077 14.7704 9.53612ZM14.7704 9H15.2268C15.2999 9 15.3638 9.02979 15.4277 9.0695C16.6966 9.97296 18.2577 10.0127 18.8146 9.99283H18.842C18.9424 10.0028 19.0155 10.102 18.9972 10.2113L18.7233 13.428C18.7142 13.5273 18.632 13.6067 18.5407 13.6067H18.4038L18.3581 14.1826L18.2029 14.1925C18.066 14.2024 17.9382 14.1925 17.8013 14.1826C17.7943 14.8678 17.7931 15.8058 17.7912 16.5603C17.7912 16.7426 17.689 16.899 17.5433 16.9659L17.3874 17L14.8858 16.9972H12.5999L12.4567 16.9659C12.311 16.899 12.2088 16.7426 12.2088 16.5603L12.2142 14.1826C12.0864 14.1925 11.9494 14.2024 11.8125 14.1925L11.6482 14.1826L11.6025 13.6067H11.4656C11.3743 13.6067 11.2921 13.5273 11.283 13.428L11.0091 10.2113C11.0091 10.2013 11.0091 10.2013 11 10.1715C11.0091 10.0623 11.0913 9.9829 11.1917 9.9829C11.7303 10.0028 13.2458 9.96304 14.5786 9.05956C14.6334 9.01985 14.6973 9 14.7704 9Z" fill="#94B447"/>
<path fill-rule="evenodd" clip-rule="evenodd" d="M15 14.5C15 14.2239 15.2239 14 15.5 14C15.7761 14 16 14.2239 16 14.5C16 14.7761 15.7761 15 15.5 15C15.2239 15 15 14.7761 15 14.5Z" fill="#94B447"/>
</svg>
