<svg width="20" height="19" viewBox="0 0 20 19" fill="none" xmlns="http://www.w3.org/2000/svg">
<g clip-path="url(#clip0_101_2)">
<path fill-rule="evenodd" clip-rule="evenodd" d="M9.89943 1.20292C7.60031 1.20292 5.39501 2.09974 3.76877 3.69663C2.14246 5.29358 1.22851 7.45987 1.22851 9.71902V18.0814C1.22823 18.1019 1.23209 18.1222 1.23991 18.1411C1.24774 18.16 1.25929 18.1771 1.2738 18.1913C1.28831 18.2056 1.30549 18.2167 1.32427 18.2242C1.34304 18.2317 1.36309 18.2354 1.38326 18.2352L1.39141 18.2351L9.89943 18.2351C11.0379 18.2351 12.1652 18.0149 13.2171 17.5871C14.269 17.1593 15.2248 16.5321 16.0301 15.7414C16.8353 14.9507 17.4742 14.0119 17.9101 12.9785C18.346 11.9452 18.5703 10.8376 18.5703 9.71902C18.5703 8.60043 18.346 7.49284 17.9101 6.4595C17.4742 5.42616 16.8353 4.48735 16.0301 3.69663C15.2248 2.90592 14.269 2.27878 13.2171 1.85094C12.1652 1.4231 11.0379 1.20292 9.89943 1.20292ZM9.89943 19.438H1.39481C1.21173 19.4398 1.03013 19.4058 0.860581 19.3382C0.689563 19.2699 0.534316 19.1687 0.403956 19.0407C0.273601 18.9127 0.17077 18.7605 0.101445 18.593C0.0327042 18.427 -0.00173549 18.2492 6.72849e-05 18.0701V9.71902C6.72849e-05 7.14191 1.04262 4.67002 2.89892 2.84723C4.75528 1.02437 7.2734 0 9.89943 0C11.1997 0 12.4871 0.251481 13.6883 0.740043C14.8895 1.2286 15.9808 1.94465 16.8999 2.84723C17.8191 3.7498 18.5481 4.82121 19.0455 6.00026C19.5428 7.1793 19.7988 8.44293 19.7988 9.71902C19.7988 10.9951 19.5428 12.2587 19.0455 13.4378C18.5481 14.6168 17.8191 15.6882 16.8999 16.5908C15.9808 17.4934 14.8895 18.2094 13.6883 18.698C12.4871 19.1866 11.1997 19.438 9.89943 19.438Z" fill="#3B5284"/>
<path fill-rule="evenodd" clip-rule="evenodd" d="M9.11952 9.11365C8.97166 9.11365 8.8518 9.244 8.8518 9.40479C8.85074 10.6757 8.84968 11.9466 8.84862 13.2175C8.84862 13.3783 8.96881 13.5086 9.11707 13.5086H10.8829C11.0312 13.5086 11.1514 13.3783 11.1514 13.2175C11.1545 12.5335 11.1522 10.0999 11.1482 9.40479C11.1482 9.244 11.0283 9.11365 10.8805 9.11365H9.11952ZM10.2451 6.55598C11.3223 7.71759 12.8652 7.93602 12.8834 7.93602L13.0569 7.95586L12.8287 10.7954C12.9017 10.7954 12.9656 10.8053 13.0204 10.8053L13.2942 7.69774C12.7739 7.67789 11.441 7.54881 10.2451 6.55598ZM9.77036 6.53612C8.57444 7.53889 7.24157 7.67789 6.72121 7.69774L6.99508 10.8053C7.04987 10.8053 7.11377 10.8053 7.1868 10.7954L6.95857 7.95586L7.13201 7.93602C7.14115 7.93602 8.67486 7.70766 9.77036 6.53612ZM9.77036 6H10.2268C10.2999 6 10.3638 6.02979 10.4277 6.0695C11.6966 6.97296 13.2577 7.01268 13.8146 6.99283H13.842C13.9424 7.00275 14.0155 7.10204 13.9972 7.21126L13.7233 10.428C13.7142 10.5273 13.632 10.6067 13.5407 10.6067H13.4038L13.3581 11.1826L13.2029 11.1925C13.066 11.2024 12.9382 11.1925 12.8013 11.1826C12.7943 11.8678 12.7931 12.8058 12.7912 13.5603C12.7912 13.7426 12.689 13.899 12.5433 13.9659L12.3874 14L9.88582 13.9972H7.59986L7.45667 13.9659C7.31099 13.899 7.20878 13.7426 7.20878 13.5603L7.21419 11.1826C7.08638 11.1925 6.94943 11.2024 6.8125 11.1925L6.64817 11.1826L6.60254 10.6067H6.46559C6.3743 10.6067 6.29214 10.5273 6.283 10.428L6.00914 7.21126C6.00914 7.20132 6.00914 7.20132 6 7.17154C6.00914 7.06233 6.0913 6.9829 6.19172 6.9829C6.73033 7.00275 8.24579 6.96304 9.57864 6.05956C9.63343 6.01985 9.69734 6 9.77036 6Z" fill="#94B447"/>
<path fill-rule="evenodd" clip-rule="evenodd" d="M10 11.5C10 11.2239 10.2239 11 10.5 11C10.7761 11 11 11.2239 11 11.5C11 11.7761 10.7761 12 10.5 12C10.2239 12 10 11.7761 10 11.5Z" fill="#94B447"/>
</g>
<defs>
<clipPath id="clip0_101_2">
<rect width="20" height="19" fill="white"/>
</clipPath>
</defs>
</svg>
