<svg width="186" height="89" viewBox="0 0 186 89" fill="none" xmlns="http://www.w3.org/2000/svg">
<path d="M14.8388 81.4844C14.0992 82.0052 13.1513 82.4167 11.995 82.7188C10.8388 83.0104 9.4221 83.1562 7.74501 83.1562C6.07835 83.1562 4.39605 83.0573 2.69814 82.8594V79.8281C4.21897 80.1719 5.75022 80.3438 7.29189 80.3438C8.83355 80.3438 9.9898 80.2604 10.7606 80.0938C11.5315 79.9167 12.1513 79.6875 12.62 79.4062C13.4846 78.8854 13.9169 78.2083 13.9169 77.375C13.9169 76.7292 13.7502 76.2292 13.4169 75.875C12.8856 75.3229 12.12 74.8177 11.12 74.3594L7.12001 72.5312C5.74501 71.8854 4.77105 71.2865 4.19814 70.7344C2.96897 69.5469 2.35439 68.1719 2.35439 66.6094C2.35439 65.0052 3.0523 63.7083 4.44814 62.7188C5.97939 61.6354 8.15647 61.0938 10.9794 61.0938C12.8023 61.0938 14.469 61.1667 15.9794 61.3125V64.2969C14.6981 64.0052 13.2658 63.8594 11.6825 63.8594C10.1096 63.8594 8.96376 63.9427 8.24501 64.1094C7.53668 64.2656 6.97939 64.4688 6.57314 64.7188C5.83355 65.1771 5.46376 65.7812 5.46376 66.5312C5.46376 67.2604 5.69814 67.8646 6.16689 68.3438C6.58355 68.75 7.34397 69.2188 8.44814 69.75L12.5575 71.7031C13.9221 72.349 14.8752 72.9583 15.4169 73.5312C15.969 74.1042 16.3752 74.6823 16.6356 75.2656C16.896 75.8385 17.0263 76.5312 17.0263 77.3438C17.0263 78.1458 16.8492 78.9062 16.495 79.625C16.1408 80.3333 15.5888 80.9531 14.8388 81.4844ZM24.7081 80.5312C25.0519 80.6562 25.5727 80.7188 26.2706 80.7188C26.9685 80.7188 27.5519 80.6354 28.0206 80.4688V82.9688C27.8019 83.0208 27.4842 83.0521 27.0675 83.0625L26.0831 83.0938C25.8644 83.0938 25.6977 83.0938 25.5831 83.0938C23.5727 83.0938 22.0883 82.4375 21.13 81.125C20.3592 80.0625 19.9738 78.6562 19.9738 76.9062V69.2656H17.6613V67.7969L19.9738 66.875L20.7238 62.875H23.0988V66.875H28.0988V69.2656H23.0988V76.8906C23.0988 78.9323 23.6352 80.1458 24.7081 80.5312ZM40.5306 79.0469V66.875H43.6556V83H40.8431L40.5619 81.2969C39.0202 82.599 37.3171 83.25 35.4525 83.25C33.4733 83.25 32.0723 82.7031 31.2494 81.6094C30.3952 80.4948 29.9681 78.5729 29.9681 75.8438V66.875H33.0931V75.6875C33.0931 77.6146 33.3692 78.9271 33.9213 79.625C34.4108 80.25 35.3431 80.5625 36.7181 80.5625C38.1035 80.5625 39.3744 80.0573 40.5306 79.0469ZM48.9 68.6406C49.8063 67.9427 50.8219 67.4323 51.9469 67.1094C53.0823 66.7865 54.0719 66.625 54.9156 66.625C55.7594 66.625 56.4104 66.6458 56.8688 66.6875V59.75H59.9781V83H57.1813L57.0563 81.1406C56.4208 81.9844 55.4573 82.6094 54.1656 83.0156C53.6656 83.1719 53.1552 83.25 52.6344 83.25C52.124 83.25 51.6188 83.1979 51.1188 83.0938C50.6188 82.9896 50.1188 82.8177 49.6188 82.5781C49.1292 82.3281 48.6604 82.0052 48.2125 81.6094C47.7646 81.2031 47.3635 80.7083 47.0094 80.125C46.2594 78.8438 45.8844 77.3281 45.8844 75.5781C45.8844 73.8281 46.1604 72.4115 46.7125 71.3281C47.275 70.2344 48.0042 69.3385 48.9 68.6406ZM50.7906 70.5C50.2594 71 49.8479 71.6458 49.5563 72.4375C49.275 73.2188 49.1344 74.1719 49.1344 75.2969C49.1344 76.4115 49.2698 77.3333 49.5406 78.0625C49.8115 78.7812 50.15 79.3438 50.5563 79.75C51.275 80.4792 52.1396 80.8438 53.15 80.8438C54.4521 80.8438 55.5302 80.3646 56.3844 79.4062C56.6031 79.1667 56.7594 78.9531 56.8531 78.7656V69.1562L56.5406 69.125C56.0615 69.0625 55.4885 69.0312 54.8219 69.0312C54.1656 69.0312 53.4625 69.151 52.7125 69.3906C51.9625 69.6198 51.3219 69.9896 50.7906 70.5ZM70.41 83.25C64.5142 83.25 61.5663 80.3698 61.5663 74.6094C61.5663 72.1302 62.384 70.1458 64.0194 68.6562C65.4881 67.3021 67.1652 66.625 69.0506 66.625C71.1027 66.625 72.7069 67.3125 73.8631 68.6875C74.936 69.9688 75.4725 71.6823 75.4725 73.8281V75.0469H64.8163C64.8163 77.9948 66.0194 79.7969 68.4256 80.4531C68.9985 80.6094 69.8788 80.6875 71.0663 80.6875C72.2642 80.6875 73.436 80.526 74.5819 80.2031V82.8438C73.436 83.1146 72.0454 83.25 70.41 83.25ZM72.3475 72.75C72.3475 71.75 72.0715 70.9062 71.5194 70.2188C70.8735 69.4271 69.9829 69.0312 68.8475 69.0312C67.6496 69.0312 66.6756 69.4115 65.9256 70.1719C65.2381 70.8802 64.8944 71.7396 64.8944 72.75H72.3475ZM83.9356 69.3125C82.3835 69.3125 81.0033 69.8385 79.795 70.8906V83H76.67V66.875H79.5606L79.7794 68.625C81.4773 67.2917 83.2325 66.625 85.045 66.625C86.9617 66.625 88.3679 67.1979 89.2638 68.3438C90.2013 69.5521 90.67 71.5 90.67 74.1875V83H87.545V74.1875C87.545 71.6042 86.8471 70.0625 85.4513 69.5625C85.0033 69.3958 84.4981 69.3125 83.9356 69.3125ZM98.9144 80.5312C99.2581 80.6562 99.779 80.7188 100.477 80.7188C101.175 80.7188 101.758 80.6354 102.227 80.4688V82.9688C102.008 83.0208 101.69 83.0521 101.274 83.0625L100.289 83.0938C100.071 83.0938 99.904 83.0938 99.7894 83.0938C97.779 83.0938 96.2946 82.4375 95.3363 81.125C94.5654 80.0625 94.18 78.6562 94.18 76.9062V69.2656H91.8675V67.7969L94.18 66.875L94.93 62.875H97.305V66.875H102.305V69.2656H97.305V76.8906C97.305 78.9323 97.8415 80.1458 98.9144 80.5312Z" fill="#94B447"/>
<path d="M106.606 61.25H109.731V69.8438H120.012V61.25H123.137V83H120.012V72.5938H109.731V83H106.606V61.25ZM124.678 74.9062C124.678 72.375 125.485 70.3229 127.1 68.75C128.61 67.2812 130.48 66.5469 132.709 66.5469C134.897 66.5469 136.725 67.2812 138.194 68.75C139.756 70.3125 140.538 72.3646 140.538 74.9062C140.538 77.4375 139.751 79.4792 138.178 81.0312C136.689 82.5104 134.86 83.25 132.694 83.25C130.496 83.25 128.631 82.5104 127.1 81.0312C125.485 79.4792 124.678 77.4375 124.678 74.9062ZM127.928 74.9062C127.928 77.5729 128.782 79.3854 130.491 80.3438C131.095 80.6771 131.819 80.8438 132.663 80.8438C133.506 80.8438 134.22 80.6771 134.803 80.3438C135.386 80 135.866 79.5521 136.241 79C136.939 77.9375 137.288 76.5729 137.288 74.9062C137.288 72.2604 136.449 70.4479 134.772 69.4688C134.189 69.125 133.491 68.9531 132.678 68.9531C131.866 68.9531 131.157 69.125 130.553 69.4688C129.959 69.8021 129.47 70.2448 129.084 70.7969C128.314 71.8802 127.928 73.25 127.928 74.9062ZM152.657 79.0469V66.875H155.782V83H152.969L152.688 81.2969C151.146 82.599 149.443 83.25 147.579 83.25C145.6 83.25 144.199 82.7031 143.376 81.6094C142.521 80.4948 142.094 78.5729 142.094 75.8438V66.875H145.219V75.6875C145.219 77.6146 145.495 78.9271 146.048 79.625C146.537 80.25 147.469 80.5625 148.844 80.5625C150.23 80.5625 151.501 80.0573 152.657 79.0469ZM162.542 83.25C161.24 83.25 159.922 83.1562 158.589 82.9688V80.2031C159.943 80.526 161.318 80.6875 162.714 80.6875C165.505 80.6875 166.901 80.099 166.901 78.9219C166.901 78.474 166.792 78.1406 166.573 77.9219C166.25 77.5781 165.74 77.2344 165.042 76.8906L162.761 75.8438C161.281 75.1042 160.323 74.5104 159.886 74.0625C159.063 73.2292 158.651 72.2396 158.651 71.0938C158.651 69.8021 159.25 68.75 160.448 67.9375C161.74 67.0625 163.552 66.625 165.886 66.625C167.063 66.625 168.25 66.7083 169.448 66.875V69.5469C168.136 69.3073 166.99 69.1875 166.011 69.1875C165.042 69.1875 164.287 69.25 163.745 69.375C163.214 69.5 162.813 69.6562 162.542 69.8438C162.115 70.1354 161.901 70.5156 161.901 70.9844C161.901 71.4427 162.047 71.8177 162.339 72.1094C162.641 72.3906 163.11 72.6979 163.745 73.0312L166.042 74.1406C167.542 74.9219 168.505 75.5208 168.932 75.9375C169.745 76.7292 170.151 77.724 170.151 78.9219C170.151 80.2031 169.505 81.2344 168.214 82.0156C166.86 82.8385 164.969 83.25 162.542 83.25ZM179.88 83.25C173.984 83.25 171.036 80.3698 171.036 74.6094C171.036 72.1302 171.854 70.1458 173.489 68.6562C174.958 67.3021 176.635 66.625 178.521 66.625C180.573 66.625 182.177 67.3125 183.333 68.6875C184.406 69.9688 184.943 71.6823 184.943 73.8281V75.0469H174.286C174.286 77.9948 175.489 79.7969 177.896 80.4531C178.469 80.6094 179.349 80.6875 180.536 80.6875C181.734 80.6875 182.906 80.526 184.052 80.2031V82.8438C182.906 83.1146 181.515 83.25 179.88 83.25ZM181.818 72.75C181.818 71.75 181.541 70.9062 180.989 70.2188C180.344 69.4271 179.453 69.0312 178.318 69.0312C177.12 69.0312 176.146 69.4115 175.396 70.1719C174.708 70.8802 174.364 71.7396 174.364 72.75H181.818Z" fill="#3B5284"/>
<path d="M93.5706 55.8734H77.8867C77.6979 55.8759 77.5104 55.8411 77.3355 55.7709C77.1606 55.7008 77.0017 55.5968 76.8681 55.4652C76.7346 55.3335 76.6292 55.1768 76.5581 55.0043C76.4869 54.8317 76.4516 54.6469 76.4541 54.4607V38.9942C76.4541 34.5175 78.2574 30.2242 81.4674 27.0588C84.6774 23.8933 89.031 22.1149 93.5706 22.1149C95.8184 22.1149 98.0441 22.5515 100.121 23.3998C102.197 24.2481 104.084 25.4914 105.674 27.0588C107.263 28.6261 108.524 30.4869 109.384 32.5348C110.244 34.5827 110.687 36.7776 110.687 38.9942C110.687 41.2108 110.244 43.4057 109.384 45.4536C108.524 47.5015 107.263 49.3622 105.674 50.9296C104.084 52.497 102.197 53.7403 100.121 54.5886C98.0441 55.4369 95.8184 55.8734 93.5706 55.8734Z" stroke="#3B5284" stroke-width="2" stroke-linecap="round" stroke-linejoin="round"/>
<path fill-rule="evenodd" clip-rule="evenodd" d="M94 42.5C94 42.2239 94.2239 42 94.5 42C94.7761 42 95 42.2239 95 42.5C95 42.7761 94.7761 43 94.5 43C94.2239 43 94 42.7761 94 42.5Z" fill="#94B447"/>
<path fill-rule="evenodd" clip-rule="evenodd" d="M91.0189 38.0057C90.6862 38.0057 90.4165 38.299 90.4165 38.6608C90.4142 41.5203 90.4118 44.3798 90.4094 47.2393C90.4094 47.6011 90.6798 47.8944 91.0134 47.8944H94.9865C95.3201 47.8944 95.5906 47.6011 95.5906 47.2393C95.5976 45.7004 95.5925 40.2249 95.5834 38.6608C95.5834 38.299 95.3137 38.0057 94.9811 38.0057H91.0189ZM93.5514 32.251C95.9752 34.8646 99.4466 35.356 99.4877 35.356L99.878 35.4007L99.3645 41.7896C99.5288 41.7896 99.6726 41.8119 99.7958 41.8119L100.412 34.8199C99.2412 34.7753 96.2423 34.4848 93.5514 32.251ZM92.4833 32.2063C89.7925 34.4625 86.7935 34.7753 85.6227 34.8199L86.2389 41.8119C86.3622 41.8119 86.506 41.8119 86.6703 41.7896L86.1568 35.4007L86.547 35.356C86.5676 35.356 90.0184 34.8422 92.4833 32.2063ZM92.4833 31H93.5104C93.6747 31 93.8185 31.067 93.9623 31.1564C96.8174 33.1892 100.33 33.2785 101.583 33.2339H101.644C101.87 33.2562 102.035 33.4796 101.994 33.7253L101.377 40.963C101.357 41.1864 101.172 41.3652 100.967 41.3652H100.659L100.556 42.6608L100.207 42.6831C99.8985 42.7055 99.611 42.6831 99.3028 42.6608C99.2872 44.2026 99.2844 46.3129 99.2802 48.0106C99.2802 48.4208 99.0502 48.7728 98.7225 48.9232L98.3717 49L92.7431 48.9937H87.5997L87.2775 48.9232C86.9497 48.7728 86.7197 48.4208 86.7197 48.0106L86.7319 42.6608C86.4444 42.6831 86.1362 42.7055 85.8281 42.6831L85.4584 42.6608L85.3557 41.3652H85.0476C84.8422 41.3652 84.6573 41.1864 84.6368 40.963L84.0206 33.7253C84.0206 33.703 84.0206 33.703 84 33.636C84.0206 33.3902 84.2054 33.2115 84.4314 33.2115C85.6433 33.2562 89.053 33.1668 92.0519 31.134C92.1752 31.0447 92.319 31 92.4833 31Z" fill="#94B447"/>
</svg>
